<?xml version="1.0" standalone="no"?>
<!DOCTYPE svg PUBLIC "-//W3C//DTD SVG 20010904//EN"
 "http://www.w3.org/TR/2001/REC-SVG-20010904/DTD/svg10.dtd">
<svg version="1.0" xmlns="http://www.w3.org/2000/svg"
 width="500.000000pt" height="500.000000pt" viewBox="0 0 500.000000 500.000000"
 preserveAspectRatio="xMidYMid meet">
<metadata>
Created by potrace 1.14, written by Peter Selinger 2001-2017
</metadata>
<g transform="translate(0.000000,500.000000) scale(0.100000,-0.100000)"
fill="#000000" stroke="none">
<path d="M106 4978 c-4 -21 -25 -233 -32 -333 -5 -75 -16 -200 -19 -230 -2
-16 -8 -113 -14 -215 -6 -102 -16 -221 -22 -265 -6 -46 -12 -303 -14 -600 -3
-559 -5 -552 29 -110 3 44 8 109 11 145 3 36 8 94 10 130 16 230 26 354 35
434 5 50 12 132 15 181 3 50 8 106 10 125 5 36 23 283 31 425 3 44 11 134 19
199 8 65 12 123 9 127 -3 5 -18 9 -34 9 -23 0 -31 -5 -34 -22z"/>
<path d="M810 4963 c0 -21 -5 -66 -10 -99 -12 -71 -20 -161 -25 -255 -1 -36
-5 -74 -8 -85 -3 -10 -9 -46 -12 -79 -3 -33 -10 -89 -16 -125 -5 -36 -11 -83
-14 -105 -3 -22 -7 -58 -10 -80 -3 -22 -8 -80 -11 -130 -3 -49 -8 -97 -12
-105 -3 -8 -7 -35 -8 -60 -6 -139 -15 -256 -23 -316 -11 -79 -23 -192 -23
-214 0 -8 -4 -51 -10 -95 -6 -44 -12 -105 -13 -135 -1 -30 -6 -82 -11 -115 -4
-33 -8 -69 -9 -80 -1 -11 -4 -31 -8 -45 -7 -24 -13 -80 -22 -220 -2 -36 -7
-81 -11 -100 -3 -19 -8 -66 -9 -105 -3 -111 -26 -253 -42 -267 -9 -7 -24 -17
-35 -23 -23 -12 -47 -74 -42 -107 2 -13 -1 -30 -8 -38 -12 -14 -126 -70 -143
-70 -4 0 -26 -9 -49 -19 -23 -11 -69 -32 -103 -47 -69 -30 -71 -33 -78 -145
-3 -35 -7 -80 -10 -99 -2 -19 -7 -82 -11 -140 -3 -58 -9 -131 -13 -164 -5 -32
-9 -162 -10 -287 -2 -225 -2 -229 18 -229 12 0 21 -5 21 -11 0 -6 -9 -9 -20
-6 -17 4 -20 0 -20 -33 0 -22 5 -42 10 -45 6 -4 7 -12 3 -18 -15 -24 -11 -35
11 -30 21 4 21 4 1 -9 -16 -10 -21 -26 -23 -75 -7 -119 16 -155 86 -132 49 17
63 19 56 8 -3 -5 8 -9 24 -9 25 0 29 -3 25 -23 -6 -31 25 -57 70 -59 27 -1 41
5 61 28 14 16 26 40 26 52 0 14 5 22 12 20 23 -8 37 -70 31 -139 -4 -55 -3
-67 11 -72 12 -5 22 7 42 49 23 48 29 55 48 49 11 -4 39 -8 60 -8 47 0 66 21
66 72 0 46 12 29 41 -57 12 -35 34 -78 50 -96 26 -31 28 -39 31 -134 l3 -102
269 0 c260 0 269 1 253 18 -10 10 -17 26 -17 35 0 9 -5 17 -11 17 -8 0 -8 4 0
14 17 20 84 34 217 46 66 5 146 12 179 15 33 3 152 8 265 11 248 7 254 5 283
-95 l17 -61 496 0 c491 0 495 0 489 20 -10 32 21 36 56 6 l31 -26 609 0 c445
0 608 3 603 11 -3 6 -1 15 6 19 9 5 9 13 1 28 -16 31 -21 92 -8 112 8 14 8 22
-1 33 -7 8 -10 22 -6 31 3 9 2 16 -4 16 -11 0 -25 37 -22 63 1 9 -5 17 -13 17
-16 0 -32 63 -21 82 4 6 3 8 -3 5 -6 -4 -17 0 -24 9 -11 13 -8 19 17 40 92 76
262 167 427 228 53 20 113 44 132 53 l35 17 0 155 c-1 154 -1 156 -25 174 -25
18 -25 18 -25 -8 0 -22 -4 -26 -22 -23 -21 3 -23 8 -21 61 2 55 0 59 -34 91
-40 36 -38 60 4 50 22 -6 25 -4 20 10 -4 11 -1 16 10 16 14 0 15 11 10 78 -5
79 -32 166 -48 156 -5 -3 -9 -14 -9 -25 0 -62 -54 50 -65 136 -11 87 -15 96
-35 85 -9 -5 -25 -25 -34 -45 -19 -39 -30 -48 -17 -12 5 13 12 48 16 78 6 47
3 62 -23 119 -17 36 -33 80 -36 98 -5 32 -5 32 14 14 19 -17 119 -209 170
-325 14 -31 28 -57 33 -57 4 0 7 -6 7 -14 0 -7 9 -34 20 -60 12 -25 29 -83 39
-129 10 -45 25 -96 34 -112 15 -28 16 10 17 537 l0 567 -37 6 c-51 8 -83 22
-83 36 0 11 18 10 93 -7 l27 -6 0 226 0 226 -22 0 c-13 -1 -34 -7 -48 -15 -28
-16 -70 -20 -70 -6 0 9 81 46 115 53 20 3 20 12 23 1056 l2 1052 -230 0 -229
0 -12 -42 c-6 -24 -13 -59 -14 -78 -2 -19 -8 -60 -14 -90 -6 -30 -20 -109 -31
-175 -11 -66 -36 -212 -56 -325 -20 -113 -37 -221 -38 -240 0 -19 -3 -37 -7
-40 -3 -3 -13 -57 -23 -120 -10 -63 -19 -126 -22 -140 -2 -14 -6 -51 -9 -84
-4 -32 -10 -68 -15 -80 -4 -12 -11 -49 -15 -82 -4 -32 -11 -72 -16 -89 -4 -16
-9 -48 -10 -70 -1 -22 -6 -47 -10 -56 -5 -9 -3 -21 3 -27 9 -9 9 -12 -1 -12
-10 0 -12 -10 -8 -35 3 -20 2 -35 -4 -35 -6 0 -6 -8 1 -20 8 -14 8 -20 -1 -20
-7 0 -9 -13 -4 -41 5 -27 4 -39 -3 -35 -5 3 -12 -1 -16 -9 -3 -8 -1 -17 5 -21
6 -4 6 -11 -2 -20 -7 -8 -10 -32 -7 -57 4 -33 0 -49 -13 -66 -20 -25 -25 -46
-9 -36 6 4 6 -3 0 -21 -9 -24 -9 -25 5 -14 11 9 15 9 15 1 0 -6 -7 -14 -15
-17 -10 -4 -13 -14 -9 -30 4 -15 2 -24 -5 -24 -13 0 -11 -31 2 -41 5 -3 2 -12
-6 -20 -20 -20 -28 -74 -16 -106 6 -17 6 -28 0 -32 -5 -4 -12 -20 -15 -36 -2
-17 -5 -32 -5 -35 -1 -3 -6 2 -11 10 -7 11 -8 5 -3 -20 3 -19 11 -38 17 -42
40 -27 -69 -23 -234 7 -231 42 -240 44 -340 60 -52 8 -142 31 -200 50 -145 49
-144 49 -158 -29 -16 -84 -15 -115 4 -151 26 -49 34 -86 35 -155 1 -153 -75
-316 -170 -365 -40 -20 -102 -27 -227 -27 -106 0 -174 7 -174 18 0 2 6 14 12
26 27 47 39 53 106 51 74 -2 131 19 113 41 -8 10 -7 17 4 26 8 7 15 19 15 26
0 8 6 14 13 14 7 0 4 7 -7 15 -11 8 -15 15 -9 15 5 0 26 15 45 34 43 42 60
116 34 145 -33 37 -15 114 45 188 57 70 119 162 119 177 0 8 6 16 13 19 7 3
32 43 55 89 34 69 42 95 42 139 -1 79 -22 158 -48 179 -13 11 -20 24 -16 34 7
19 -22 32 -121 53 -84 17 -131 56 -121 98 4 14 2 25 -4 25 -5 0 -10 7 -10 15
0 13 -16 15 -98 14 -54 -1 -103 1 -109 4 -5 3 -10 -1 -10 -10 0 -8 22 -31 49
-50 78 -56 69 -63 -82 -59 -72 1 -135 7 -141 13 -6 6 -5 20 2 41 6 18 8 59 5
94 -8 98 -7 110 12 124 39 30 92 3 92 -47 0 -23 23 -67 43 -80 5 -4 17 -5 26
-2 26 7 26 92 1 110 -23 16 -27 53 -6 53 8 0 45 -25 83 -55 61 -49 73 -55 116
-55 30 0 46 4 42 10 -3 6 -13 10 -21 10 -9 0 -24 5 -35 10 -16 9 -17 14 -6 30
6 11 16 20 20 20 5 0 24 7 43 16 22 10 52 15 89 12 66 -4 71 8 21 64 -24 28
-43 39 -74 44 -97 15 -40 40 69 30 90 -8 94 12 12 51 -45 21 -72 27 -118 26
-33 0 -98 -1 -145 -2 -47 -1 -91 -5 -99 -10 -8 -5 -24 -6 -37 -1 -14 6 -26 5
-29 -1 -4 -5 -24 -18 -46 -30 -37 -19 -45 -44 -12 -37 21 4 93 -64 93 -88 0
-34 -21 -44 -92 -44 -67 0 -68 0 -69 28 -1 15 0 31 1 37 1 5 2 18 3 27 1 10 4
18 8 18 4 0 12 14 18 30 9 28 8 32 -15 40 -14 6 -30 10 -35 10 -5 0 -17 4 -27
9 -32 17 -87 36 -98 33 -6 -1 -19 9 -28 23 -9 14 -21 23 -27 19 -7 -4 -8 9 -3
38 4 23 8 53 9 65 1 12 7 29 14 37 15 18 5 56 -15 56 -8 0 -14 6 -14 13 0 16
-30 46 -45 46 -5 0 -11 5 -14 12 -2 7 1 9 8 5 15 -10 14 17 -1 32 -9 9 -9 12
1 12 8 0 10 7 6 20 -5 16 -2 20 17 20 29 0 52 15 45 27 -7 11 62 47 71 38 3
-3 0 -5 -6 -5 -21 0 -13 -17 11 -24 14 -3 26 0 33 9 6 8 16 15 23 15 6 0 11 4
11 8 0 4 29 17 65 27 36 11 65 23 65 27 0 13 96 18 130 7 19 -6 51 -13 70 -15
59 -6 75 -9 80 -14 3 -3 30 -14 60 -24 30 -10 63 -28 72 -40 15 -19 17 -19 23
-4 4 10 2 32 -4 49 -15 45 -4 50 28 13 18 -20 42 -34 66 -38 36 -7 37 -6 33
16 -15 68 -40 146 -59 184 -24 50 -19 70 14 52 12 -7 28 -13 35 -14 30 -5 97
-86 89 -107 -2 -7 -4 -16 -3 -20 0 -4 -13 -15 -30 -23 l-31 -15 13 -47 c7 -26
19 -65 27 -87 8 -22 18 -60 22 -85 4 -25 10 -54 12 -65 3 -11 5 -28 5 -37 -1
-10 3 -20 8 -23 5 -3 5 -16 -2 -30 -9 -19 -7 -30 11 -59 12 -20 23 -49 23 -66
1 -16 4 -30 8 -30 4 0 12 -17 18 -39 7 -21 19 -44 27 -51 8 -7 15 -20 15 -30
0 -17 27 -47 34 -39 2 2 6 21 9 42 5 33 4 37 -9 26 -13 -10 -14 -6 -8 32 4 24
10 48 15 54 5 5 9 26 9 47 0 27 6 41 20 50 25 16 25 46 0 78 -21 27 -26 50
-10 50 14 0 13 43 -1 57 -8 8 -5 13 10 18 26 8 27 35 2 66 -10 13 -22 43 -26
66 -3 23 -13 47 -21 54 -8 6 -14 19 -14 29 0 9 -11 23 -25 30 -26 14 -33 34
-15 45 32 20 -10 68 -50 58 -22 -6 -22 -4 -16 32 6 31 4 40 -13 52 -27 18 -27
43 -1 43 13 0 20 7 20 19 0 11 6 21 12 24 32 12 -87 76 -143 77 -8 0 -28 13
-45 28 -16 16 -47 38 -69 49 -183 92 -165 86 -269 80 -85 -5 -99 -8 -139 -36
-51 -35 -97 -86 -97 -107 0 -21 -19 -17 -63 13 -47 33 -127 46 -164 26 -14 -7
-39 -13 -57 -13 -17 -1 -49 -8 -71 -16 -22 -8 -53 -17 -70 -20 -16 -3 -41 -14
-55 -25 -14 -11 -37 -24 -52 -30 -29 -11 -73 -72 -64 -88 3 -5 -6 -20 -21 -33
-16 -13 -61 -91 -105 -178 -45 -92 -91 -169 -111 -190 -19 -19 -33 -38 -31
-42 3 -4 -2 -20 -10 -35 -16 -32 -22 -132 -11 -182 6 -24 16 -37 36 -44 33
-13 62 -71 58 -114 -2 -17 3 -38 10 -47 10 -12 11 -28 5 -63 -4 -27 -8 -52 -9
-58 -1 -5 -7 -21 -14 -34 -11 -19 -12 -53 -7 -145 9 -158 13 -211 21 -245 4
-19 1 -32 -10 -41 -22 -18 -53 -20 -59 -3 -6 14 -53 18 -73 5 -24 -15 -30 -53
-14 -86 18 -34 17 -136 -1 -136 -6 0 -7 7 -4 16 3 8 2 12 -4 9 -5 -3 -12 6
-16 20 -3 14 -10 25 -16 25 -5 0 -7 4 -4 9 9 14 -60 135 -84 147 -14 7 -35 9
-58 3 -20 -4 -39 -6 -42 -4 -4 2 -35 7 -71 10 -35 3 -80 7 -99 9 -19 2 -48 9
-63 15 -16 6 -35 11 -43 11 -35 0 -8 17 54 33 37 10 74 22 82 27 9 4 40 11 70
16 62 9 59 8 83 18 14 7 17 21 17 80 0 62 -3 75 -22 93 -21 19 -26 20 -58 8
-71 -26 -97 -33 -195 -55 -55 -13 -106 -30 -112 -38 -7 -9 -13 -13 -14 -9 -3
21 -2 58 4 102 4 28 9 84 12 125 3 41 7 86 9 100 10 80 18 156 55 540 17 168
33 319 36 336 3 18 14 126 25 240 10 115 22 242 26 282 l7 72 -87 0 c-47 0
-86 -3 -86 -7 0 -5 -9 -93 -20 -198 -10 -104 -28 -287 -39 -405 -12 -118 -30
-305 -41 -415 -11 -110 -27 -276 -35 -369 -9 -92 -17 -182 -20 -200 -2 -17 -7
-69 -10 -116 -9 -122 -22 -232 -31 -255 -14 -34 -22 32 -13 111 4 38 12 139
18 224 11 144 16 200 26 305 2 22 7 78 10 125 3 47 8 101 11 120 2 19 6 70 8
112 2 42 7 81 11 88 4 6 1 17 -5 25 -9 11 -9 15 -1 15 7 0 11 14 11 33 0 31 3
72 16 193 4 40 2 64 -5 68 -11 7 -17 -11 -25 -81 -4 -30 -2 -43 7 -43 8 0 7
-4 -3 -10 -8 -5 -12 -10 -8 -10 4 0 1 -14 -6 -32 -9 -21 -11 -40 -5 -55 5 -14
4 -34 -2 -49 -5 -15 -12 -42 -15 -62 -3 -19 -9 -44 -13 -56 l-8 -21 -7 21 c-4
12 -3 32 2 45 5 13 8 43 8 67 -1 23 2 42 6 42 4 0 3 11 -2 24 -5 13 -6 26 -3
29 5 6 17 141 28 322 2 39 6 90 9 115 3 25 8 91 12 148 3 57 7 114 9 127 2 23
-1 25 -36 25 -38 0 -39 -1 -39 -37z m2245 -503 c3 -5 1 -10 -4 -10 -6 0 -11 5
-11 10 0 6 2 10 4 10 3 0 8 -4 11 -10z m-45 -200 c8 -5 11 -12 8 -16 -4 -3
-14 1 -23 10 -18 17 -9 21 15 6z m339 -181 l16 -24 -24 16 c-27 17 -42 44 -21
37 7 -2 20 -15 29 -29z m-35 -34 c-6 -16 -34 -21 -34 -7 0 13 11 22 26 22 8 0
11 -6 8 -15z m-2489 -25 c3 -5 -1 -10 -9 -10 -9 0 -16 5 -16 10 0 6 4 10 9 10
6 0 13 -4 16 -10z m4160 -20 c3 -5 -1 -10 -9 -10 -9 0 -16 5 -16 10 0 6 4 10
9 10 6 0 13 -4 16 -10z m-2625 -114 c0 -2 -8 -10 -17 -17 -16 -13 -17 -12 -4
4 13 16 21 21 21 13z m-1563 -108 c-3 -8 -6 -5 -6 6 -1 11 2 17 5 13 3 -3 4
-12 1 -19z m-7 -175 c-1 -24 -2 -26 -11 -10 -5 9 -7 22 -4 27 10 17 15 11 15
-17z m1507 -279 c-3 -3 -12 -4 -19 -1 -8 3 -5 6 6 6 11 1 17 -2 13 -5z m96
-63 c0 -18 -4 -35 -7 -39 -11 -11 -117 -19 -155 -11 -29 5 -27 15 2 10 4 0 6
4 5 11 -2 7 6 13 17 14 11 1 40 13 65 28 58 33 75 30 73 -13z m-1433 -1 c0 -5
-7 -10 -15 -10 -8 0 -15 5 -15 10 0 6 7 10 15 10 8 0 15 -4 15 -10z m1225 -30
c-3 -5 -10 -10 -16 -10 -5 0 -9 5 -9 10 0 6 7 10 16 10 8 0 12 -4 9 -10z m649
-177 c-15 -11 -16 -17 -8 -31 6 -9 20 -17 30 -17 11 0 25 -4 32 -8 6 -5 17 -5
22 -2 6 3 10 -3 10 -14 0 -11 -5 -23 -10 -26 -7 -4 -7 -13 0 -24 9 -17 0 -18
-148 -16 -188 2 -202 13 -77 65 70 29 82 37 120 79 33 36 41 41 44 26 2 -10
-5 -25 -15 -32z m-996 -152 c42 -21 62 -55 62 -105 0 -18 9 -51 20 -74 17 -35
19 -53 14 -112 l-7 -70 -104 -51 c-101 -49 -142 -58 -134 -28 2 8 3 19 2 24 0
6 -3 27 -6 47 -2 23 1 42 9 50 23 23 66 108 66 130 0 12 4 47 10 77 5 31 12
73 15 94 3 20 8 37 11 37 3 0 22 -9 42 -19z m-399 -47 c9 -21 19 -40 23 -42 4
-2 8 -14 8 -27 0 -13 3 -25 8 -27 4 -1 17 -22 29 -46 12 -24 19 -41 14 -38 -4
3 12 -34 35 -81 24 -47 41 -90 38 -94 -2 -4 0 -10 6 -14 5 -3 10 -31 10 -61 0
-50 -2 -54 -19 -45 -10 6 -28 34 -41 63 -12 29 -44 99 -71 154 -27 56 -49 106
-49 111 0 15 -30 72 -41 78 -5 4 -7 11 -4 16 4 5 1 9 -4 9 -6 0 -11 7 -11 15
0 8 4 15 9 15 5 0 12 7 15 16 5 14 4 15 -9 4 -13 -11 -14 -10 -8 6 17 46 43
41 62 -12z m1269 -32 c-2 -11 -19 -19 -48 -24 -37 -7 -47 -5 -58 9 -16 22 -6
31 43 35 52 4 67 -1 63 -20z m295 -16 c9 -7 17 -19 17 -25 0 -6 10 -25 21 -41
15 -19 19 -35 14 -47 -7 -17 -15 -53 -17 -80 -1 -7 -6 -13 -11 -13 -6 0 -7
-17 -3 -40 5 -32 3 -40 -9 -40 -8 0 -15 -8 -15 -17 -1 -24 -43 -71 -74 -83
-18 -6 -33 -5 -55 6 -17 9 -40 13 -51 10 -11 -3 -29 -9 -40 -12 -14 -4 -20 -1
-20 11 0 12 -5 15 -17 10 -43 -18 -56 -18 -69 0 -12 16 -14 16 -14 3 0 -17
-26 -32 -40 -23 -4 3 -10 24 -12 47 -4 39 -1 46 34 80 37 37 49 68 27 68 -5 0
-7 5 -4 10 4 6 11 8 16 5 5 -4 9 -1 9 4 0 6 13 11 28 11 16 0 37 8 46 19 9 10
31 21 48 25 30 6 98 69 98 91 0 33 59 46 93 21z m85 -37 c-8 -5 -16 -1 -21 13
-5 14 -3 24 5 29 8 5 16 1 21 -13 5 -14 3 -24 -5 -29z m1733 3 c-6 -2 -11 -8
-11 -12 0 -22 -43 -81 -52 -72 -13 13 18 81 46 104 20 16 21 16 25 0 2 -9 -2
-18 -8 -20z m-2001 -12 c0 -15 -40 -38 -85 -48 -22 -5 -47 -13 -56 -16 -9 -4
-23 1 -34 14 -18 19 -18 20 1 20 11 0 29 6 40 14 11 8 29 13 40 12 10 -2 28 0
39 5 28 11 55 11 55 -1z m1953 -153 c3 -24 9 -51 13 -60 4 -12 1 -17 -13 -17
-23 0 -43 54 -36 94 8 41 30 31 36 -17z m-3363 -123 c7 -24 17 -44 21 -44 5 0
9 -6 9 -13 0 -18 28 -75 41 -82 5 -4 9 -17 9 -30 0 -13 5 -25 11 -27 14 -5 0
-38 -17 -38 -8 0 -14 -4 -14 -10 0 -22 -19 -8 -35 28 -10 20 -31 66 -47 101
-33 69 -42 124 -27 152 15 28 35 12 49 -37z m3428 -14 c10 -16 10 -20 -1 -20
-8 0 -22 9 -32 20 -18 19 -17 20 1 20 11 0 25 -9 32 -20z m-524 -105 c19 -13
26 -26 26 -49 -1 -25 -2 -28 -10 -14 -6 9 -32 35 -58 57 -45 39 -46 41 -16 32
17 -5 43 -17 58 -26z m116 -85 c19 -16 31 -29 25 -29 -5 -1 -25 13 -44 29 -18
17 -30 30 -24 30 5 0 24 -13 43 -30z m-3077 -88 c6 -32 -7 -51 -34 -49 -22 1
-24 10 -9 38 8 13 7 19 0 19 -7 0 -6 5 2 14 18 19 35 10 41 -22z m3230 -14
c25 -29 69 -127 64 -142 -3 -6 -14 10 -25 37 -19 42 -42 63 -42 37 0 -5 -5
-10 -10 -10 -6 0 -9 12 -8 28 1 15 -2 37 -6 50 -4 12 -4 22 0 22 4 0 16 -10
27 -22z m-3873 -125 c0 -1 -8 -7 -18 -12 -13 -7 -31 -6 -58 4 -45 15 -47 30
-4 30 16 1 32 4 35 7 6 5 45 -20 45 -29z m-520 -298 c0 -7 -6 -15 -13 -18 -10
-4 -13 2 -9 19 4 24 22 24 22 -1z m373 -104 c5 -21 -19 -45 -48 -48 -26 -2
-35 15 -22 44 13 29 62 33 70 4z m-384 -18 c1 5 6 5 11 2 14 -9 -4 -38 -25
-41 -13 -2 -16 3 -11 19 3 12 6 29 7 37 0 10 3 8 9 -5 5 -11 9 -16 9 -12z
m269 -49 c34 5 46 2 62 -14 24 -24 30 -25 30 -4 0 8 -4 12 -10 9 -5 -3 -10 -1
-10 4 0 10 20 15 48 12 6 -1 17 10 24 24 11 25 28 32 42 18 4 -5 27 -9 51 -9
70 -2 93 -41 60 -105 -9 -16 -13 -34 -10 -38 4 -8 -19 -119 -27 -127 -2 -1
-19 -5 -39 -9 -26 -5 -36 -3 -37 7 -1 7 -5 34 -10 61 -7 36 -6 47 4 47 7 0 18
9 24 20 9 17 7 22 -13 29 -13 5 -46 12 -73 16 -91 11 -173 28 -169 35 2 3 -5
19 -16 36 -10 16 -19 33 -19 39 0 5 10 -5 23 -23 20 -31 25 -33 65 -28z m-118
-154 c6 -11 7 -20 3 -20 -4 0 0 -5 9 -11 12 -6 16 -19 13 -40 -2 -17 -6 -34
-9 -37 -3 -3 -1 -11 5 -19 9 -9 8 -13 0 -13 -6 0 -11 -5 -11 -11 0 -6 6 -9 14
-6 10 4 12 0 9 -14 -3 -10 -7 -19 -9 -19 -13 0 -60 121 -58 150 1 19 3 41 3
48 1 19 19 14 31 -8z m370 -235 c-13 -122 -24 -141 -15 -25 7 93 14 135 21
128 2 -3 0 -49 -6 -103z m1881 -11 c121 -36 237 -113 287 -191 30 -47 32 -54
30 -137 -3 -71 -6 -86 -18 -84 -8 2 -15 10 -15 18 0 8 -7 15 -15 15 -8 0 -14
-6 -12 -12 5 -30 -35 -10 -56 27 -12 22 -27 40 -32 40 -5 0 -19 19 -30 42
l-20 42 21 22 c26 28 22 35 -43 69 -29 15 -55 30 -58 34 -19 24 -61 40 -96 35
-73 -10 -83 -14 -78 -28 3 -8 -3 -20 -14 -27 -16 -10 -18 -16 -9 -31 7 -10 19
-18 29 -18 9 0 18 -5 20 -11 2 -7 24 -8 73 -1 88 12 105 -1 31 -22 -35 -11
-56 -22 -56 -31 0 -8 -3 -15 -8 -15 -4 0 -13 -9 -20 -20 -11 -19 -10 -22 18
-31 41 -15 38 -26 -5 -21 -21 3 -35 0 -35 -7 0 -6 -7 -11 -16 -11 -13 0 -14
-3 -4 -15 10 -12 7 -17 -14 -26 -40 -19 -31 -28 22 -24 42 4 45 3 29 -9 -10
-8 -34 -13 -53 -12 -19 2 -39 -3 -45 -10 -7 -9 -8 -14 -1 -14 5 0 8 -9 5 -20
-3 -11 0 -20 6 -20 6 0 11 -6 11 -14 0 -8 9 -18 21 -21 12 -4 30 -14 40 -24
11 -9 23 -16 27 -16 15 -1 72 -36 72 -44 0 -17 -132 -8 -172 11 -72 35 -162
143 -173 209 -4 21 -11 39 -16 39 -5 0 -9 7 -9 16 0 13 -7 15 -40 9 -39 -7
-70 8 -70 33 0 6 -5 12 -12 14 -20 7 0 58 22 58 12 0 20 7 20 16 0 13 7 15 38
9 38 -6 38 -6 48 32 6 27 14 38 27 38 10 0 23 9 29 20 21 40 74 88 123 111 59
28 119 31 196 8z m-1876 -171 c26 11 15 -36 -12 -48 -13 -5 -23 -13 -23 -17 0
-5 -7 -8 -15 -8 -9 0 -15 -10 -16 -22 -1 -22 -1 -22 -9 2 -13 41 -11 48 13 52
16 2 23 11 25 32 3 20 6 25 12 16 4 -7 15 -10 25 -7z m1968 -110 c-3 -7 -9
-13 -13 -13 -12 0 -20 28 -14 45 6 14 8 13 19 -2 7 -9 11 -23 8 -30z m-60 2
c-5 -13 -23 -22 -23 -11 0 15 14 35 21 31 4 -3 6 -12 2 -20z m-2033 -4 c0 -14
-18 -23 -30 -16 -6 4 -8 11 -5 16 8 12 35 12 35 0z m-460 -57 c0 -17 -6 -24
-19 -24 -21 0 -30 16 -24 41 7 26 43 11 43 -17z m9 -111 c-1 -44 2 -76 7 -74
40 17 54 25 54 33 0 5 5 6 10 3 6 -3 10 -23 10 -44 0 -33 -7 -45 -45 -80 -37
-34 -81 -61 -100 -61 -2 0 -1 17 1 38 11 88 11 118 0 131 -8 11 -8 15 2 18 7
3 12 22 12 45 0 38 18 67 43 68 5 0 7 -35 6 -77z m2621 47 c0 -5 -4 -10 -10
-10 -5 0 -10 5 -10 10 0 6 5 10 10 10 6 0 10 -4 10 -10z m-260 -54 c0 -3 -4
-8 -10 -11 -5 -3 -10 -1 -10 4 0 6 5 11 10 11 6 0 10 -2 10 -4z m230 -126 c0
-5 -4 -10 -10 -10 -5 0 -10 5 -10 10 0 6 5 10 10 10 6 0 10 -4 10 -10z m-2003
-52 c-3 -8 -6 -5 -6 6 -1 11 2 17 5 13 3 -3 4 -12 1 -19z m-81 -95 c-11 -11
-17 4 -9 23 7 18 8 18 11 1 2 -10 1 -21 -2 -24z m-72 -9 c11 -28 7 -42 -14
-47 -25 -6 -34 7 -26 39 7 27 31 32 40 8z"/>
<path d="M2865 2980 c3 -5 8 -10 11 -10 2 0 4 5 4 10 0 6 -5 10 -11 10 -5 0
-7 -4 -4 -10z"/>
<path d="M1567 4227 c-11 -29 -9 -53 4 -40 6 6 9 21 7 34 -3 21 -4 22 -11 6z"/>
<path d="M3138 3553 c7 -3 16 -2 19 1 4 3 -2 6 -13 5 -11 0 -14 -3 -6 -6z"/>
<path d="M3234 3500 c-10 -10 -8 -60 3 -60 20 0 64 34 61 48 -4 20 -48 28 -64
12z"/>
<path d="M3472 3498 c-17 -17 -15 -58 3 -65 20 -7 21 -6 28 40 6 39 -7 49 -31
25z"/>
<path d="M3183 3331 c-24 -20 -43 -40 -43 -44 0 -13 -27 -37 -42 -37 -10 0
-10 -2 1 -9 24 -16 118 55 134 101 11 31 -7 27 -50 -11z"/>
<path d="M3426 3345 c-3 -8 -1 -15 4 -15 6 0 10 7 10 15 0 8 -2 15 -4 15 -2 0
-6 -7 -10 -15z"/>
<path d="M3092 2166 c4 -4 -8 -21 -27 -37 -30 -27 -52 -69 -36 -69 10 0 56 51
70 77 8 17 8 23 -1 29 -7 4 -10 4 -6 0z"/>
<path d="M4950 1184 c0 -9 7 -14 17 -12 25 5 28 28 4 28 -12 0 -21 -6 -21 -16z"/>
<path d="M4660 53 c-8 -3 -24 -14 -35 -23 -11 -10 -33 -20 -50 -23 -27 -4 -26
-4 8 -6 44 -1 72 11 87 39 6 11 9 20 8 19 -2 0 -10 -3 -18 -6z"/>
<path d="M1290 10 c0 -5 5 -10 10 -10 6 0 10 5 10 10 0 6 -4 10 -10 10 -5 0
-10 -4 -10 -10z"/>
</g>
</svg>
